<svg viewBox="0 0 1232 300" xmlns="http://www.w3.org/2000/svg" font-family="&#39;IBM Plex Mono&#39;, monospace">
  <defs>
    <marker id="ah2" markerWidth="8" markerHeight="8" refX="7.5" refY="4" orient="auto">
      <path d="M0,1 L7.5,4 L0,7" fill="none" stroke="#A6ADB8" stroke-width="1"></path>
    </marker>
  </defs>

  <text x="32" y="34" fill="#A6ADB8" font-size="12" letter-spacing="1.6">DOCK 02 — CONTINUOUS RECORD</text>
  <line x1="32" y1="48" x2="1200" y2="48" stroke="#F4F5F7" stroke-opacity="0.10"></line>

  <line x1="32" y1="150" x2="1200" y2="150" stroke="#F4F5F7" stroke-opacity="0.28" stroke-width="1"></line>
  <line x1="32" y1="140" x2="32" y2="160" stroke="#F4F5F7" stroke-opacity="0.4"></line>
  <line x1="1200" y1="140" x2="1200" y2="160" stroke="#F4F5F7" stroke-opacity="0.4"></line>

  <g stroke="#F4F5F7" stroke-opacity="0.14">
    <line x1="96" y1="144" x2="96" y2="156"></line>
    <line x1="160" y1="144" x2="160" y2="156"></line>
    <line x1="224" y1="144" x2="224" y2="156"></line>
    <line x1="288" y1="144" x2="288" y2="156"></line>
    <line x1="352" y1="144" x2="352" y2="156"></line>
    <line x1="416" y1="144" x2="416" y2="156"></line>
    <line x1="480" y1="144" x2="480" y2="156"></line>
    <line x1="736" y1="144" x2="736" y2="156"></line>
    <line x1="800" y1="144" x2="800" y2="156"></line>
    <line x1="864" y1="144" x2="864" y2="156"></line>
    <line x1="928" y1="144" x2="928" y2="156"></line>
    <line x1="992" y1="144" x2="992" y2="156"></line>
    <line x1="1056" y1="144" x2="1056" y2="156"></line>
    <line x1="1120" y1="144" x2="1120" y2="156"></line>
  </g>

  <text x="32" y="182" fill="#A6ADB8" font-size="12" letter-spacing="1.2">CONTINUOUS FOOTAGE — UNINDEXED</text>

  <rect x="544" y="106" width="144" height="88" fill="none" stroke="#F4F5F7" stroke-width="1.5"></rect>
  <line x1="544" y1="150" x2="688" y2="150" stroke="#F4F5F7" stroke-opacity="0.28"></line>
  <text x="556" y="128" fill="#F4F5F7" font-size="13" letter-spacing="1">EVENT</text>
  <text x="556" y="186" fill="#F4F5F7" font-size="13" letter-spacing="1">DETECTED</text>

  <line x1="616" y1="106" x2="616" y2="82" stroke="#F4F5F7" stroke-opacity="0.28"></line>
  <line x1="616" y1="82" x2="800" y2="82" stroke="#F4F5F7" stroke-opacity="0.28" marker-end="url(#ah2)"></line>
  <rect x="812" y="66" width="212" height="32" fill="none" stroke="#F4F5F7" stroke-opacity="0.4"></rect>
  <text x="826" y="87" fill="#F4F5F7" font-size="14" letter-spacing="1">ORD #———— · BOUND</text>

  <line x1="616" y1="194" x2="616" y2="240" stroke="#F4F5F7" stroke-opacity="0.28"></line>
  <line x1="616" y1="240" x2="440" y2="240" stroke="#F4F5F7" stroke-opacity="0.28" marker-end="url(#ah2)"></line>

  <rect x="216" y="224" width="212" height="32" fill="none" stroke="#F4F5F7" stroke-opacity="0.4"></rect>
  <text x="230" y="245" fill="#F4F5F7" font-size="14" letter-spacing="1">SEARCH BY ID</text>

  <line x1="216" y1="240" x2="176" y2="240" stroke="#F4F5F7" stroke-opacity="0.28" marker-end="url(#ah2)"></line>

  <rect x="32" y="216" width="128" height="48" fill="none" stroke="#F4F5F7" stroke-width="1.5"></rect>
  <path d="M40,258 L62,230 L78,246 L98,222 L124,254" fill="none" stroke="#F4F5F7" stroke-opacity="0.18"></path>
  <text x="42" y="238" fill="#A6ADB8" font-size="11" letter-spacing="0.8">CLIP</text>

  <text x="700" y="246" fill="#A6ADB8" font-size="13" letter-spacing="1">THE ID IS THE INDEX — NOT THE TIMELINE.</text>

  <g stroke="#F4F5F7" stroke-opacity="0.4">
    <path d="M28,20 h8 M32,16 v8"></path>
    <path d="M1196,20 h8 M1200,16 v8"></path>
    <path d="M28,284 h8 M32,280 v8"></path>
    <path d="M1196,284 h8 M1200,280 v8"></path>
  </g>
</svg>