<svg viewBox="0 0 340 480" xmlns="http://www.w3.org/2000/svg" font-family="&#39;IBM Plex Mono&#39;, monospace">
  <defs>
    <marker id="ahm" markerWidth="8" markerHeight="8" refX="7.5" refY="4" orient="auto">
      <path d="M0,1 L7.5,4 L0,7" fill="none" stroke="#A6ADB8" stroke-width="1"></path>
    </marker>
  </defs>
  <text x="20" y="26" fill="#A6ADB8" font-size="10" letter-spacing="1.2">DOCK 02 — CONTINUOUS RECORD</text>
  <line x1="20" y1="38" x2="320" y2="38" stroke="#F4F5F7" stroke-opacity="0.1"></line>
  <line x1="20" y1="70" x2="320" y2="70" stroke="#F4F5F7" stroke-opacity="0.28"></line>
  <line x1="20" y1="62" x2="20" y2="78" stroke="#F4F5F7" stroke-opacity="0.4"></line>
  <line x1="320" y1="62" x2="320" y2="78" stroke="#F4F5F7" stroke-opacity="0.4"></line>
  <line x1="44" y1="65" x2="44" y2="75" stroke="#F4F5F7" stroke-opacity="0.14"></line>
  <line x1="68" y1="65" x2="68" y2="75" stroke="#F4F5F7" stroke-opacity="0.14"></line>
  <line x1="92" y1="65" x2="92" y2="75" stroke="#F4F5F7" stroke-opacity="0.14"></line>
  <line x1="116" y1="65" x2="116" y2="75" stroke="#F4F5F7" stroke-opacity="0.14"></line>
  <line x1="140" y1="65" x2="140" y2="75" stroke="#F4F5F7" stroke-opacity="0.14"></line>
  <line x1="164" y1="65" x2="164" y2="75" stroke="#F4F5F7" stroke-opacity="0.14"></line>
  <line x1="188" y1="65" x2="188" y2="75" stroke="#F4F5F7" stroke-opacity="0.14"></line>
  <line x1="212" y1="65" x2="212" y2="75" stroke="#F4F5F7" stroke-opacity="0.14"></line>
  <line x1="236" y1="65" x2="236" y2="75" stroke="#F4F5F7" stroke-opacity="0.14"></line>
  <line x1="260" y1="65" x2="260" y2="75" stroke="#F4F5F7" stroke-opacity="0.14"></line>
  <line x1="284" y1="65" x2="284" y2="75" stroke="#F4F5F7" stroke-opacity="0.14"></line>
  <line x1="308" y1="65" x2="308" y2="75" stroke="#F4F5F7" stroke-opacity="0.14"></line>
  <text x="20" y="98" fill="#A6ADB8" font-size="10" letter-spacing="1.0">CONTINUOUS FOOTAGE — UNINDEXED</text>
  <line x1="170" y1="104" x2="170" y2="126" stroke="#F4F5F7" stroke-opacity="0.28" marker-end="url(#ahm)"></line>
  <rect x="118" y="130" width="104" height="54" fill="none" stroke="#F4F5F7" stroke-width="1.5"></rect>
  <text x="170" y="152" fill="#F4F5F7" font-size="12" letter-spacing="0.8" text-anchor="middle">EVENT</text>
  <text x="170" y="172" fill="#F4F5F7" font-size="12" letter-spacing="0.8" text-anchor="middle">DETECTED</text>
  <line x1="170" y1="184" x2="170" y2="212" stroke="#F4F5F7" stroke-opacity="0.28" marker-end="url(#ahm)"></line>
  <rect x="65" y="216" width="210" height="34" fill="none" stroke="#F4F5F7" stroke-opacity="0.4" stroke-width="1"></rect>
  <text x="170" y="238" fill="#F4F5F7" font-size="12" letter-spacing="0.8" text-anchor="middle">ORD #———— · BOUND</text>
  <line x1="170" y1="250" x2="170" y2="278" stroke="#F4F5F7" stroke-opacity="0.28" marker-end="url(#ahm)"></line>
  <rect x="65" y="282" width="210" height="34" fill="none" stroke="#F4F5F7" stroke-opacity="0.4" stroke-width="1"></rect>
  <text x="170" y="304" fill="#F4F5F7" font-size="12" letter-spacing="0.8" text-anchor="middle">SEARCH BY ID</text>
  <line x1="170" y1="316" x2="170" y2="344" stroke="#F4F5F7" stroke-opacity="0.28" marker-end="url(#ahm)"></line>
  <rect x="106" y="348" width="128" height="50" fill="none" stroke="#F4F5F7" stroke-width="1.5"></rect>
  <path d="M116,392 L138,362 L154,380 L176,356 L204,388" fill="none" stroke="#F4F5F7" stroke-opacity="0.18"></path>
  <text x="122" y="366" fill="#A6ADB8" font-size="10" letter-spacing="0.8">CLIP</text>
  <line x1="20" y1="428" x2="320" y2="428" stroke="#F4F5F7" stroke-opacity="0.1"></line>
  <text x="20" y="450" fill="#A6ADB8" font-size="11" letter-spacing="1.0">THE ID IS THE INDEX —</text>
  <text x="20" y="468" fill="#A6ADB8" font-size="11" letter-spacing="1.0">NOT THE TIMELINE.</text>
</svg>