<svg viewBox="0 0 1152 520" xmlns="http://www.w3.org/2000/svg" font-family="&#39;IBM Plex Mono&#39;,monospace">
<rect width="1152" height="520" fill="#101216"></rect>

<g stroke="#F4F5F7" fill="none" stroke-width="1">

<g id="camera" opacity="0.85">
<rect x="540" y="64" width="52" height="30"></rect>
<rect x="518" y="72" width="22" height="15"></rect>
<circle cx="529" cy="79" r="5"></circle>
<line x1="566" y1="94" x2="566" y2="114" opacity="0.6"></line>
<rect x="548" y="114" width="36" height="10" opacity="0.7"></rect>
<line x1="500" y1="56" x2="632" y2="56" opacity="0.35"></line>
<line x1="566" y1="56" x2="566" y2="64" opacity="0.35"></line>
</g>
<g opacity="0.22" stroke-dasharray="5 6">
<line x1="552" y1="124" x2="232" y2="300"></line>
<line x1="580" y1="124" x2="900" y2="300"></line>
</g>

<g id="zone" opacity="0.3">
<line x1="232" y1="176" x2="232" y2="404"></line>
<line x1="900" y1="176" x2="900" y2="404"></line>
<line x1="232" y1="176" x2="252" y2="176"></line><line x1="880" y1="176" x2="900" y2="176"></line>
<line x1="232" y1="404" x2="252" y2="404"></line><line x1="880" y1="404" x2="900" y2="404"></line>
</g>

<g id="belt" opacity="0.75">
<line x1="72" y1="368" x2="1080" y2="368"></line>
<line x1="72" y1="384" x2="1080" y2="384" opacity="0.5"></line>
</g>
<g id="legs" opacity="0.4">
<line x1="160" y1="384" x2="160" y2="424"></line><line x1="440" y1="384" x2="440" y2="424"></line><line x1="720" y1="384" x2="720" y2="424"></line><line x1="1000" y1="384" x2="1000" y2="424"></line>
<line x1="120" y1="424" x2="1040" y2="424" opacity="0.5"></line>
</g>

<g id="unit-in" opacity="0.35">
<rect x="96" y="312" width="72" height="56"></rect>
<line x1="96" y1="330" x2="168" y2="330"></line>
</g>

<g id="unit-a" opacity="0.9">
<rect x="264" y="304" width="80" height="64"></rect>
<line x1="264" y1="324" x2="344" y2="324" opacity="0.5"></line>
<line x1="304" y1="304" x2="304" y2="324" opacity="0.35"></line>
</g>
<g id="unit-b" opacity="0.9">
<rect x="500" y="304" width="80" height="64"></rect>
<line x1="500" y1="324" x2="580" y2="324" opacity="0.5"></line>
<line x1="540" y1="304" x2="540" y2="324" opacity="0.35"></line>
</g>
<g id="unit-c" opacity="0.9">
<rect x="736" y="304" width="80" height="64"></rect>
<line x1="736" y1="324" x2="816" y2="324" opacity="0.5"></line>
<line x1="776" y1="304" x2="776" y2="324" opacity="0.35"></line>
<path d="M760,340 L776,328 L792,344" opacity="0.55"></path>
<path d="M768,352 L784,338" opacity="0.55"></path>
</g>

<g id="unit-out" opacity="0.35">
<rect x="984" y="312" width="72" height="56"></rect>
<line x1="984" y1="330" x2="1056" y2="330"></line>
</g>

<g id="leaders" opacity="0.3">
<line x1="304" y1="304" x2="304" y2="252"></line>
<line x1="540" y1="304" x2="540" y2="252"></line>
<line x1="776" y1="304" x2="776" y2="252"></line>
<line x1="776" y1="368" x2="776" y2="446"></line>
</g>
</g>

<g stroke="#ED510C" fill="none">
<rect x="258" y="298" width="92" height="76" stroke-width="1.5" fill="#ED510C" fill-opacity="0.14"></rect>
<rect x="494" y="298" width="92" height="76" stroke-width="1.5" fill="#ED510C" fill-opacity="0.14"></rect>
<rect x="730" y="298" width="92" height="76" stroke-width="1.5" fill="#ED510C" fill-opacity="0.14"></rect>
<rect x="752" y="326" width="48" height="34" stroke-width="1.5"></rect>
</g>

<g font-size="12" letter-spacing="1.4" text-anchor="middle">
<text x="304" y="240" fill="#F4F5F7" opacity="0.9">COUNTED</text>
<text x="304" y="222" fill="#F4F5F7" opacity="0.45">UNIT ————</text>
<text x="540" y="240" fill="#F4F5F7" opacity="0.9">SKU — READ</text>
<text x="540" y="222" fill="#F4F5F7" opacity="0.45">SKU ————</text>
<text x="776" y="240" fill="#F4F5F7" opacity="0.9">INSPECTED</text>
<text x="776" y="222" fill="#F4F5F7" opacity="0.45">COND ————</text>
<text x="776" y="466" fill="#ED510C" opacity="1">DEFECT — FLAGGED IN-LINE</text>
</g>

<g fill="#F4F5F7" font-size="12" letter-spacing="1.2">
<text x="72" y="40" opacity="0.9">LINE — ELEVATION</text>
<text x="1080" y="40" text-anchor="end" opacity="0.6">ONE CAMERA · ONE PASS</text>
<text x="232" y="164" opacity="0.5">DETECTION ZONE</text>
<text x="72" y="500" opacity="0.5">COUNT · IDENTIFY · INSPECT — SAME PASS, SAME CAMERA</text>
<text x="1080" y="500" text-anchor="end" opacity="0.5">NO SEPARATE INSPECTION STATION</text>
<text x="96" y="300" opacity="0.4">IN ▸</text>
<text x="1056" y="300" text-anchor="end" opacity="0.4">▸ DISPATCH</text>
</g>
</svg>
