<svg viewBox="0 0 640 480" xmlns="http://www.w3.org/2000/svg" font-family="'IBM Plex Mono',monospace">
<rect width="640" height="480" fill="#101216"/>
<g stroke="#F4F5F7" fill="none" stroke-width="1">
<g id="racking" opacity="0.6">
<line x1="48" y1="120" x2="48" y2="356"/><line x1="188" y1="120" x2="188" y2="356"/><line x1="328" y1="120" x2="328" y2="356"/><line x1="468" y1="120" x2="468" y2="356"/>
<line x1="40" y1="120" x2="476" y2="120" opacity="0.75"/>
<line x1="40" y1="196" x2="476" y2="196"/><line x1="40" y1="272" x2="476" y2="272"/>
</g>
<g opacity="0.8">
<rect x="64" y="152" width="50" height="38"/><rect x="122" y="152" width="50" height="38"/>
<rect x="204" y="152" width="50" height="38"/>
<rect x="344" y="152" width="50" height="38"/><rect x="402" y="152" width="50" height="38"/>
<rect x="64" y="228" width="50" height="38"/>
<rect x="204" y="228" width="50" height="38"/><rect x="262" y="228" width="50" height="38"/>
<rect x="402" y="228" width="50" height="38"/>
</g>
<rect x="560" y="140" width="30" height="18" opacity="0.85"/><circle cx="575" cy="149" r="5" opacity="0.85"/>
</g>

<g stroke="#ED510C" fill="none">
<rect x="202" y="226" width="54" height="42" stroke-width="1.5" fill="#ED510C" fill-opacity="0.14"/>
<polyline points="256,232 300,196 372,196" stroke-width="1"/>
</g>
<text x="378" y="192" fill="#ED510C" font-size="11" letter-spacing="1">COUNT ▲ · WITH VIDEO PROOF</text>
</svg>
