<svg viewBox="0 0 640 480" xmlns="http://www.w3.org/2000/svg" font-family="'IBM Plex Mono',monospace">
<rect width="640" height="480" fill="#101216"/>
<g stroke="#F4F5F7" fill="none" stroke-width="1">
<line x1="30" y1="330" x2="610" y2="330" opacity="0.7"/>
<g opacity="0.45">
<circle cx="54" cy="346" r="7"/><circle cx="96" cy="346" r="7"/><circle cx="138" cy="346" r="7"/><circle cx="180" cy="346" r="7"/><circle cx="222" cy="346" r="7"/><circle cx="264" cy="346" r="7"/><circle cx="306" cy="346" r="7"/><circle cx="348" cy="346" r="7"/><circle cx="390" cy="346" r="7"/><circle cx="432" cy="346" r="7"/><circle cx="474" cy="346" r="7"/><circle cx="516" cy="346" r="7"/><circle cx="558" cy="346" r="7"/><circle cx="596" cy="346" r="7"/>
</g>
<g opacity="0.85">
<rect x="60" y="284" width="54" height="46"/>
<rect x="170" y="284" width="54" height="46"/>
<rect x="280" y="284" width="54" height="46"/>
<rect x="500" y="284" width="54" height="46"/>
</g>
<g id="arm">
<rect x="396" y="322" width="34" height="10" opacity="0.75"/>
<line x1="413" y1="322" x2="413" y2="204" opacity="0.85"/>
<line x1="413" y1="204" x2="486" y2="160" opacity="0.85"/>
<line x1="486" y1="160" x2="478" y2="240" opacity="0.85"/>
<circle cx="413" cy="204" r="7" opacity="0.7"/>
<circle cx="486" cy="160" r="6" opacity="0.7"/>
<rect x="462" y="240" width="32" height="14" opacity="0.75"/>
</g>
<rect x="120" y="140" width="30" height="18" opacity="0.85"/><circle cx="135" cy="149" r="5" opacity="0.85"/>
<line x1="135" y1="158" x2="196" y2="284" stroke-dasharray="4 5" opacity="0.35"/>
<line x1="170" y1="270" x2="170" y2="244" opacity="0.35"/>
<line x1="224" y1="270" x2="224" y2="244" opacity="0.35"/>
<line x1="170" y1="252" x2="224" y2="252" opacity="0.7"/>
<path d="M170,248 L175,252 L170,256" opacity="0.7"/>
<path d="M224,248 L219,252 L224,256" opacity="0.7"/>
</g>
<text x="197" y="238" fill="#F4F5F7" font-size="11" letter-spacing="1" text-anchor="middle" opacity="0.8">±0.4</text>

<g stroke="#ED510C" fill="none">
<rect x="166" y="280" width="62" height="54" stroke-width="1.5" fill="#ED510C" fill-opacity="0.14"/>
<polyline points="228,307 290,398 322,398" stroke-width="1"/>
</g>
<text x="328" y="402" fill="#ED510C" font-size="11" letter-spacing="1">INSPECT · DIMENSION CHECK</text>

<g fill="#F4F5F7" font-size="11" letter-spacing="1.5" opacity="0.85">
<text x="30" y="128">CAM</text>
<text x="440" y="146">ROBOT CELL</text>
<text x="30" y="374">LINE</text>
</g>
<g fill="#F4F5F7" font-size="10" letter-spacing="1" opacity="0.45">
<text x="30" y="446">PRODUCTION · DIMENSION · AUDIT</text>
<text x="30" y="464">LINE / CELL</text>
</g>
</svg>
