<svg viewBox="0 0 640 480" xmlns="http://www.w3.org/2000/svg" font-family="'IBM Plex Mono',monospace">
<rect width="640" height="480" fill="#101216"/>
<g stroke="#F4F5F7" fill="none" stroke-width="1">
<line x1="40" y1="392" x2="600" y2="392" opacity="0.6"/>

<g id="gate">
<line x1="52" y1="392" x2="52" y2="296" opacity="0.8"/>
<line x1="150" y1="392" x2="150" y2="296" opacity="0.8"/>
<rect x="44" y="284" width="114" height="14" opacity="0.85"/>
<rect x="86" y="298" width="26" height="16" opacity="0.8"/><circle cx="99" cy="306" r="4" opacity="0.8"/>
<line x1="99" y1="314" x2="128" y2="352" stroke-dasharray="3 4" opacity="0.4"/>
<rect x="70" y="352" width="76" height="30" opacity="0.9"/>
<g opacity="0.3"><line x1="78" y1="355" x2="78" y2="379"/><line x1="86" y1="355" x2="86" y2="379"/><line x1="94" y1="355" x2="94" y2="379"/><line x1="102" y1="355" x2="102" y2="379"/><line x1="110" y1="355" x2="110" y2="379"/><line x1="118" y1="355" x2="118" y2="379"/><line x1="126" y1="355" x2="126" y2="379"/><line x1="134" y1="355" x2="134" y2="379"/></g>
<circle cx="84" cy="388" r="7" opacity="0.7"/><circle cx="132" cy="388" r="7" opacity="0.7"/>
</g>

<g id="gantry">
<line x1="230" y1="392" x2="230" y2="140" opacity="0.55"/>
<line x1="560" y1="392" x2="560" y2="140" opacity="0.55"/>
<line x1="222" y1="140" x2="568" y2="140" opacity="0.75"/>
<line x1="222" y1="152" x2="568" y2="152" opacity="0.35"/>
<line x1="230" y1="200" x2="290" y2="140" opacity="0.3"/>
<line x1="560" y1="200" x2="500" y2="140" opacity="0.3"/>
<rect x="372" y="140" width="48" height="18" opacity="0.75"/>
<line x1="396" y1="158" x2="396" y2="208" opacity="0.5"/>
<rect x="358" y="208" width="76" height="12" opacity="0.75"/>
<line x1="366" y1="220" x2="366" y2="232" opacity="0.5"/>
<line x1="426" y1="220" x2="426" y2="232" opacity="0.5"/>
<rect x="354" y="232" width="84" height="38" opacity="0.9"/>
<g opacity="0.3"><line x1="362" y1="236" x2="362" y2="266"/><line x1="370" y1="236" x2="370" y2="266"/><line x1="378" y1="236" x2="378" y2="266"/><line x1="386" y1="236" x2="386" y2="266"/><line x1="394" y1="236" x2="394" y2="266"/><line x1="402" y1="236" x2="402" y2="266"/><line x1="410" y1="236" x2="410" y2="266"/><line x1="418" y1="236" x2="418" y2="266"/><line x1="426" y1="236" x2="426" y2="266"/><line x1="434" y1="236" x2="434" y2="266"/></g>
</g>

<g id="stacks" opacity="0.8">
<rect x="238" y="358" width="80" height="34"/><rect x="238" y="324" width="80" height="34"/><rect x="238" y="290" width="80" height="34"/>
<rect x="322" y="358" width="80" height="34"/><rect x="322" y="324" width="80" height="34"/>
<rect x="470" y="358" width="80" height="34"/><rect x="470" y="324" width="80" height="34"/><rect x="470" y="290" width="80" height="34"/>
<rect x="554" y="358" width="46" height="34"/>
</g>
<g opacity="0.4">
<line x1="238" y1="392" x2="238" y2="404"/><line x1="322" y1="392" x2="322" y2="404"/><line x1="406" y1="392" x2="406" y2="404"/><line x1="470" y1="392" x2="470" y2="404"/><line x1="554" y1="392" x2="554" y2="404"/>
</g>
</g>

<rect x="322" y="324" width="80" height="34" stroke="#ED510C" stroke-width="1.5" fill="#ED510C" fill-opacity="0.14"/>
<polyline points="402,324 452,290 484,290" stroke="#ED510C" stroke-width="1" fill="none"/>
<text x="490" y="286" fill="#ED510C" font-size="11" letter-spacing="1">BAY D-06 · LOCATED</text>

</svg>
