<svg viewBox="0 0 800 560" xmlns="http://www.w3.org/2000/svg" font-family="'IBM Plex Mono',monospace">
<rect width="800" height="560" fill="#F6F7F8"/>

<g id="camera" stroke="#13151A" fill="none" stroke-width="1">
<rect x="358" y="86" width="84" height="40" opacity="0.9"/>
<rect x="342" y="96" width="16" height="20" opacity="0.9"/>
<circle cx="350" cy="106" r="5" opacity="0.7"/>
<line x1="400" y1="126" x2="400" y2="146" opacity="0.7"/>
<rect x="384" y="146" width="32" height="10" opacity="0.8"/>
<line x1="366" y1="80" x2="434" y2="80" opacity="0.4"/>
<line x1="400" y1="80" x2="400" y2="86" opacity="0.4"/>
</g>
<g stroke="#13151A" fill="none" stroke-width="1" opacity="0.3" stroke-dasharray="4 5">
<line x1="384" y1="156" x2="150" y2="238"/>
<line x1="400" y1="158" x2="400" y2="238"/>
<line x1="416" y1="156" x2="650" y2="238"/>
</g>

<!-- YARD VIEWPORT -->
<g id="vp-yard">
<rect x="40" y="238" width="220" height="150" stroke="#13151A" fill="none" stroke-width="1" opacity="0.85"/>
<g stroke="#13151A" fill="none" stroke-width="1" opacity="0.3">
<line x1="40" y1="238" x2="54" y2="238"/><line x1="40" y1="238" x2="40" y2="252"/>
<line x1="246" y1="238" x2="260" y2="238"/><line x1="260" y1="238" x2="260" y2="252"/>
<line x1="40" y1="374" x2="40" y2="388"/><line x1="40" y1="388" x2="54" y2="388"/>
<line x1="246" y1="388" x2="260" y2="388"/><line x1="260" y1="374" x2="260" y2="388"/>
</g>
<g stroke="#13151A" fill="none" stroke-width="1">
<line x1="56" y1="360" x2="244" y2="360" opacity="0.6"/>
<g opacity="0.8">
<rect x="70" y="330" width="52" height="30"/><rect x="70" y="300" width="52" height="30"/>
<rect x="126" y="330" width="52" height="30"/>
<rect x="182" y="330" width="52" height="30"/><rect x="182" y="300" width="52" height="30"/><rect x="182" y="270" width="52" height="30"/>
</g>
<g opacity="0.35">
<line x1="78" y1="333" x2="78" y2="357"/><line x1="86" y1="333" x2="86" y2="357"/><line x1="94" y1="333" x2="94" y2="357"/><line x1="102" y1="333" x2="102" y2="357"/><line x1="110" y1="333" x2="110" y2="357"/>
</g>
</g>
<rect x="126" y="330" width="52" height="30" stroke="#ED510C" stroke-width="1.5" fill="#ED510C" fill-opacity="0.14"/>
</g>
<polyline points="152,360 152,412 184,412" stroke="#ED510C" stroke-width="1" fill="none"/>
<text x="190" y="422" fill="#ED510C" font-size="20" letter-spacing="1">DENT</text>

<!-- WAREHOUSE VIEWPORT -->
<g id="vp-wh">
<rect x="290" y="238" width="220" height="150" stroke="#13151A" fill="none" stroke-width="1" opacity="0.85"/>
<g stroke="#13151A" fill="none" stroke-width="1" opacity="0.3">
<line x1="290" y1="238" x2="304" y2="238"/><line x1="290" y1="238" x2="290" y2="252"/>
<line x1="496" y1="238" x2="510" y2="238"/><line x1="510" y1="238" x2="510" y2="252"/>
<line x1="290" y1="374" x2="290" y2="388"/><line x1="290" y1="388" x2="304" y2="388"/>
<line x1="496" y1="388" x2="510" y2="388"/><line x1="510" y1="374" x2="510" y2="388"/>
</g>
<g stroke="#13151A" fill="none" stroke-width="1">
<g opacity="0.55">
<line x1="310" y1="262" x2="310" y2="340"/><line x1="380" y1="262" x2="380" y2="340"/><line x1="450" y1="262" x2="450" y2="340"/><line x1="490" y1="262" x2="490" y2="340"/>
<line x1="306" y1="262" x2="494" y2="262"/><line x1="306" y1="300" x2="494" y2="300"/>
</g>
<g opacity="0.8">
<rect x="320" y="272" width="26" height="24"/><rect x="352" y="272" width="26" height="24"/>
<rect x="392" y="272" width="26" height="24"/>
<rect x="458" y="272" width="26" height="24"/>
<rect x="320" y="310" width="26" height="24"/><rect x="392" y="310" width="26" height="24"/>
</g>
<line x1="304" y1="360" x2="496" y2="360" opacity="0.6"/>
<line x1="304" y1="344" x2="496" y2="344" opacity="0.4"/>
<g opacity="0.4"><circle cx="316" cy="352" r="4"/><circle cx="344" cy="352" r="4"/><circle cx="372" cy="352" r="4"/><circle cx="400" cy="352" r="4"/><circle cx="428" cy="352" r="4"/><circle cx="456" cy="352" r="4"/><circle cx="484" cy="352" r="4"/></g>
<g opacity="0.85"><rect x="330" y="324" width="24" height="20"/><rect x="410" y="324" width="24" height="20"/><rect x="466" y="324" width="24" height="20"/></g>
</g>
<rect x="406" y="320" width="32" height="28" stroke="#ED510C" stroke-width="1.5" fill="#ED510C" fill-opacity="0.14"/>
</g>
<polyline points="422,348 422,412 454,412" stroke="#ED510C" stroke-width="1" fill="none"/>
<text x="460" y="422" fill="#ED510C" font-size="20" letter-spacing="1">COUNT ▲</text>

<!-- FACTORY VIEWPORT -->
<g id="vp-fct">
<rect x="540" y="238" width="220" height="150" stroke="#13151A" fill="none" stroke-width="1" opacity="0.85"/>
<g stroke="#13151A" fill="none" stroke-width="1" opacity="0.3">
<line x1="540" y1="238" x2="554" y2="238"/><line x1="540" y1="238" x2="540" y2="252"/>
<line x1="746" y1="238" x2="760" y2="238"/><line x1="760" y1="238" x2="760" y2="252"/>
<line x1="540" y1="374" x2="540" y2="388"/><line x1="540" y1="388" x2="554" y2="388"/>
<line x1="746" y1="388" x2="760" y2="388"/><line x1="760" y1="374" x2="760" y2="388"/>
</g>
<g stroke="#13151A" fill="none" stroke-width="1">
<line x1="554" y1="340" x2="746" y2="340" opacity="0.65"/>
<g opacity="0.4"><circle cx="568" cy="352" r="5"/><circle cx="596" cy="352" r="5"/><circle cx="624" cy="352" r="5"/><circle cx="652" cy="352" r="5"/><circle cx="680" cy="352" r="5"/><circle cx="708" cy="352" r="5"/><circle cx="736" cy="352" r="5"/></g>
<g opacity="0.85">
<rect x="562" y="306" width="36" height="34"/>
<rect x="622" y="306" width="36" height="34"/>
<rect x="710" y="306" width="36" height="34"/>
</g>
<line x1="686" y1="340" x2="686" y2="276" opacity="0.8"/>
<line x1="686" y1="276" x2="730" y2="256" opacity="0.8"/>
<line x1="730" y1="256" x2="726" y2="292" opacity="0.8"/>
<circle cx="686" cy="276" r="5" opacity="0.7"/>
<rect x="714" y="292" width="22" height="10" opacity="0.7"/>
<line x1="622" y1="298" x2="622" y2="282" opacity="0.35"/>
<line x1="658" y1="298" x2="658" y2="282" opacity="0.35"/>
<line x1="622" y1="288" x2="658" y2="288" opacity="0.6"/>
</g>
<rect x="618" y="302" width="44" height="42" stroke="#ED510C" stroke-width="1.5" fill="#ED510C" fill-opacity="0.14"/>
</g>
<polyline points="640,344 640,412 672,412" stroke="#ED510C" stroke-width="1" fill="none"/>
<text x="678" y="422" fill="#ED510C" font-size="20" letter-spacing="1">INSPECT</text>

</svg>
