<svg viewBox="0 0 1200 675" xmlns="http://www.w3.org/2000/svg" font-family="'IBM Plex Mono',monospace">
<defs>
<pattern id="gcorr" width="13" height="10" patternUnits="userSpaceOnUse">
<line x1="3" y1="0" x2="3" y2="10" stroke="#F4F5F7" stroke-width="1" opacity="0.7"/>
<line x1="8" y1="0" x2="8" y2="10" stroke="#F4F5F7" stroke-width="1" opacity="0.25"/>
</pattern>
</defs>
<rect width="1200" height="675" fill="#101216"/>
<text x="40" y="52" fill="#F4F5F7" font-size="19" letter-spacing="2" opacity="0.92">GATE_04</text>
<text x="40" y="78" fill="#F4F5F7" font-size="19" letter-spacing="2" opacity="0.92">IDENTITY READ — IN MOTION</text>
<g fill="#F4F5F7" font-size="12" letter-spacing="1" opacity="0.7" text-anchor="end">
<text x="1160" y="46">NIGHT · RAIN · FOG · DUST</text>
<text x="1160" y="68">SEAL — CHECKED</text>
<text x="1160" y="90">T — 14:02:11</text>
</g>
<g stroke="#F4F5F7" opacity="0.22" stroke-width="1">
<line x1="180" y1="120" x2="168" y2="150"/><line x1="320" y1="100" x2="308" y2="130"/><line x1="460" y1="130" x2="448" y2="160"/><line x1="600" y1="105" x2="588" y2="135"/><line x1="740" y1="125" x2="728" y2="155"/><line x1="260" y1="180" x2="248" y2="210"/><line x1="520" y1="185" x2="508" y2="215"/><line x1="660" y1="170" x2="648" y2="200"/><line x1="120" y1="220" x2="108" y2="250"/><line x1="400" y1="230" x2="388" y2="260"/>
</g>
<g stroke="#F4F5F7" fill="none" stroke-width="1">
<line x1="60" y1="560" x2="1140" y2="560" opacity="0.6"/>
<g id="portal">
<rect x="896" y="160" width="14" height="400" opacity="0.85"/>
<rect x="1108" y="160" width="14" height="400" opacity="0.85"/>
<rect x="880" y="140" width="258" height="24" opacity="0.85"/>
<rect x="988" y="164" width="30" height="20" opacity="0.9"/>
<circle cx="1003" cy="174" r="5" opacity="0.9"/>
<line x1="1003" y1="184" x2="470" y2="402" stroke-dasharray="5 6" opacity="0.4"/>
</g>
<g id="trailer">
<line x1="180" y1="520" x2="720" y2="520" opacity="0.85"/>
<line x1="180" y1="520" x2="180" y2="540" opacity="0.85"/>
<circle cx="250" cy="560" r="24" opacity="0.85"/><circle cx="250" cy="560" r="9" opacity="0.5"/>
<circle cx="320" cy="560" r="24" opacity="0.85"/><circle cx="320" cy="560" r="9" opacity="0.5"/>
<circle cx="620" cy="560" r="24" opacity="0.85"/><circle cx="620" cy="560" r="9" opacity="0.5"/>
</g>
<g id="cab">
<path d="M720,540 L720,430 L760,430 L790,470 L820,470 L820,540 Z" opacity="0.85"/>
<line x1="760" y1="430" x2="760" y2="470" opacity="0.6"/>
<line x1="760" y1="470" x2="790" y2="470" opacity="0.6"/>
<circle cx="780" cy="560" r="24" opacity="0.85"/><circle cx="780" cy="560" r="9" opacity="0.5"/>
</g>
<g id="box">
<rect x="200" y="320" width="480" height="200" opacity="0.9"/>
<rect x="216" y="332" width="448" height="176" fill="url(#gcorr)" stroke="none"/>
<rect x="216" y="332" width="448" height="176" opacity="0.3"/>
<rect x="200" y="320" width="20" height="16" opacity="0.9"/><rect x="660" y="320" width="20" height="16" opacity="0.9"/>
<rect x="200" y="504" width="20" height="16" opacity="0.9"/><rect x="660" y="504" width="20" height="16" opacity="0.9"/>
</g>
<g id="speed" opacity="0.4">
<line x1="120" y1="360" x2="176" y2="360"/><line x1="104" y1="400" x2="176" y2="400"/><line x1="120" y1="440" x2="176" y2="440"/>
</g>
</g>
<rect x="280" y="398" width="216" height="42" fill="#101216"/>
<text x="288" y="426" fill="#F4F5F7" font-size="20" letter-spacing="2" opacity="0.95">VSTU 907032 1</text>
<rect x="560" y="398" width="82" height="42" fill="#101216"/>
<text x="568" y="426" fill="#F4F5F7" font-size="20" letter-spacing="2" opacity="0.95">22G1</text>
<g stroke="#ED510C" fill="none">
<rect x="274" y="392" width="228" height="54" stroke-width="1.5" fill="#ED510C" fill-opacity="0.14"/>
<rect x="554" y="392" width="94" height="54" stroke-width="1.5" fill="#ED510C" fill-opacity="0.14"/>
<polyline points="502,392 560,236 584,236" stroke-width="1"/>
</g>
<g font-size="16" letter-spacing="2">
<text x="592" y="218" fill="#F4F5F7" opacity="0.55">RAW</text>
<text x="660" y="218" fill="#F4F5F7" opacity="0.75">VSTU 9<tspan fill="#ED510C" opacity="1">O</tspan>7032 1</text>
<text x="592" y="248" fill="#F4F5F7" opacity="0.55">FIX</text>
<text x="660" y="248" fill="#F4F5F7">VSTU 9<tspan fill="#ED510C">0</tspan>7032 1</text>
<text x="592" y="282" fill="#ED510C">VERIFIED · CONF 0.99</text>
</g>
<line x1="584" y1="228" x2="584" y2="288" stroke="#F4F5F7" opacity="0.25"/>
<g fill="#F4F5F7" font-size="12" letter-spacing="1">
<text x="40" y="620" opacity="0.85">READ ON THE MOVE — NO STOP-AND-SHOOT</text>
<text x="40" y="644" opacity="0.6">CONTAINER · ISO · TRAILER · WAGON — LOGGED WITH SEAL CHECK + TIMESTAMP</text>
<text x="1160" y="620" text-anchor="end" opacity="0.6">FACE — REAR · CAM 1/1</text>
</g>
</svg>
