<svg viewBox="0 0 1600 680" xmlns="http://www.w3.org/2000/svg" font-family="'IBM Plex Mono',monospace">
<defs>
<pattern id="corr" width="13" height="10" patternUnits="userSpaceOnUse">
<line x1="3" y1="0" x2="3" y2="10" stroke="#F4F5F7" stroke-width="1" opacity="0.8"/>
<line x1="8" y1="0" x2="8" y2="10" stroke="#F4F5F7" stroke-width="1" opacity="0.3"/>
</pattern>
<pattern id="zig" width="40" height="18" patternUnits="userSpaceOnUse">
<polyline points="10,0 30,9 10,18" fill="none" stroke="#F4F5F7" stroke-width="1" opacity="0.8"/>
</pattern>
<marker id="ar" markerWidth="8" markerHeight="8" refX="7" refY="4" orient="auto"><path d="M0,1 L7,4 L0,7" fill="none" stroke="#F4F5F7" stroke-width="1"/></marker>
<marker id="arb" markerWidth="8" markerHeight="8" refX="1" refY="4" orient="auto"><path d="M8,1 L1,4 L8,7" fill="none" stroke="#F4F5F7" stroke-width="1"/></marker>
</defs>
<rect x="0" y="0" width="1600" height="680" fill="#101216"/>

<text x="40" y="58" fill="#F4F5F7" font-size="21" letter-spacing="2" opacity="0.92">SPECIMEN 22G1</text>
<text x="40" y="86" fill="#F4F5F7" font-size="21" letter-spacing="2" opacity="0.92">DIMENSIONS OVERVIEW</text>
<g fill="#F4F5F7" font-size="12" letter-spacing="1" opacity="0.7" text-anchor="end">
<text x="1556" y="46">CHECKPOINT — GATE IN</text>
<text x="1556" y="68">FACES — 6 / 6 SCANNED</text>
<text x="1556" y="90">REPORT — 48 S</text>
</g>

<g stroke="#F4F5F7" fill="none" stroke-width="1">
<g id="side-elevation">
<rect x="240" y="150" width="760" height="325" opacity="0.9"/>
<line x1="240" y1="162" x2="1000" y2="162" opacity="0.5"/>
<line x1="240" y1="463" x2="1000" y2="463" opacity="0.5"/>
<rect x="282" y="168" width="676" height="289" fill="url(#corr)" stroke="none"/>
<rect x="282" y="168" width="676" height="289" opacity="0.35"/>
<line x1="282" y1="150" x2="282" y2="475" opacity="0.5"/>
<line x1="958" y1="150" x2="958" y2="475" opacity="0.5"/>
<rect x="240" y="150" width="28" height="22" opacity="0.9"/><ellipse cx="254" cy="161" rx="7" ry="4.5" opacity="0.9"/>
<rect x="972" y="150" width="28" height="22" opacity="0.9"/><ellipse cx="986" cy="161" rx="7" ry="4.5" opacity="0.9"/>
<rect x="240" y="453" width="28" height="22" opacity="0.9"/><ellipse cx="254" cy="464" rx="7" ry="4.5" opacity="0.9"/>
<rect x="972" y="453" width="28" height="22" opacity="0.9"/><ellipse cx="986" cy="464" rx="7" ry="4.5" opacity="0.9"/>
<rect x="500" y="463" width="58" height="12" opacity="0.7"/>
<rect x="690" y="463" width="58" height="12" opacity="0.7"/>
<g opacity="0.7"><rect x="906" y="176" width="40" height="16"/><line x1="910" y1="181" x2="942" y2="181"/><line x1="910" y1="186" x2="942" y2="186"/></g>
<g opacity="0.7"><rect x="296" y="416" width="52" height="30"/><line x1="302" y1="425" x2="342" y2="425" opacity="0.6"/><line x1="302" y1="431" x2="342" y2="431" opacity="0.6"/><line x1="302" y1="437" x2="326" y2="437" opacity="0.6"/></g>
</g>

<g id="defect-dent">
<rect x="472" y="242" width="100" height="68" fill="#101216" stroke="none"/>
<path d="M482,246 Q476,276 482,306" opacity="0.75"/>
<path d="M495,246 Q486,276 495,306" opacity="0.8"/>
<path d="M508,246 Q496,276 508,306" opacity="0.85"/>
<path d="M521,246 Q514,276 521,306" opacity="0.85"/>
<path d="M534,246 Q544,276 534,306" opacity="0.85"/>
<path d="M547,246 Q558,276 547,306" opacity="0.8"/>
<path d="M560,246 Q567,276 560,306" opacity="0.75"/>
<ellipse cx="522" cy="276" rx="34" ry="22" opacity="0.5"/>
<ellipse cx="522" cy="276" rx="18" ry="11" opacity="0.5"/>
</g>

<g id="defect-rust">
<rect x="684" y="354" width="62" height="60" fill="#101216" stroke="none"/>
<path d="M696,366 L704,360 L712,363 L719,358 L727,362 L733,368 L738,374 L735,381 L739,387 L731,392 L724,390 L717,395 L709,392 L701,394 L695,387 L690,380 L693,372 Z" opacity="0.85"/>
<path d="M686,394 L691,390 L694,395 L689,398 Z" opacity="0.6"/>
<path d="M740,362 L745,360 L746,365 L741,366 Z" opacity="0.6"/>
<path d="M724,400 L730,398 L731,403 L725,404 Z" opacity="0.55"/>
<g fill="#F4F5F7" stroke="none" opacity="0.8">
<circle cx="708" cy="372" r="1.3"/><circle cx="714" cy="368" r="1.0"/><circle cx="720" cy="374" r="1.4"/><circle cx="726" cy="368" r="0.9"/><circle cx="731" cy="378" r="1.2"/><circle cx="724" cy="384" r="1.1"/><circle cx="714" cy="380" r="1.3"/><circle cx="706" cy="386" r="1.0"/><circle cx="700" cy="378" r="1.1"/><circle cx="718" cy="388" r="1.0"/><circle cx="712" cy="374" r="0.8"/><circle cx="728" cy="373" r="0.8"/><circle cx="703" cy="368" r="0.9"/><circle cx="733" cy="384" r="0.9"/><circle cx="709" cy="390" r="0.8"/><circle cx="721" cy="379" r="0.9"/><circle cx="716" cy="384" r="0.8"/><circle cx="698" cy="384" r="0.8"/><circle cx="705" cy="380" r="0.7"/><circle cx="726" cy="378" r="0.7"/><circle cx="730" cy="388" r="0.8"/><circle cx="711" cy="365" r="0.7"/><circle cx="717" cy="371" r="0.7"/><circle cx="723" cy="392" r="0.7"/>
</g>
<line x1="704" y1="395" x2="704" y2="410" opacity="0.5"/>
<line x1="718" y1="396" x2="718" y2="413" opacity="0.4"/>
<line x1="730" y1="393" x2="730" y2="405" opacity="0.45"/>
</g>

<g id="defect-crack">
<rect x="832" y="272" width="84" height="64" fill="#101216" stroke="none"/>
<polyline points="845,280 858,298 852,314 868,330" opacity="0.95"/>
<polyline points="858,298 874,304 882,300" opacity="0.8"/>
<polyline points="852,314 840,324" opacity="0.8"/>
<polyline points="868,330 880,332" opacity="0.7"/>
</g>

<g id="detect" stroke="#ED510C">
<rect x="470" y="240" width="104" height="72" stroke-width="1.5" fill="#ED510C" fill-opacity="0.14"/>
<polyline points="522,240 556,110 574,110" stroke-width="1"/>
<rect x="682" y="352" width="64" height="66" stroke-width="1.5" fill="#ED510C" fill-opacity="0.14"/>
<polyline points="714,418 648,580 630,580" stroke-width="1"/>
<rect x="830" y="270" width="88" height="68" stroke-width="1.5" fill="#ED510C" fill-opacity="0.14"/>
<polyline points="918,270 952,110 970,110" stroke-width="1"/>
<rect x="1430" y="442" width="24" height="24" stroke-width="1.5" fill="#ED510C" fill-opacity="0.14"/>
<polyline points="1442,466 1420,560 1404,560" stroke-width="1"/>
</g>

<g id="scan">
<line x1="772" y1="150" x2="772" y2="475" stroke="#F4F5F7" stroke-width="1"/>
<line x1="772" y1="475" x2="772" y2="492" opacity="0.4"/>
</g>

<g id="dims" opacity="0.85">
<line x1="240" y1="486" x2="240" y2="528" opacity="0.35"/>
<line x1="1000" y1="486" x2="1000" y2="528" opacity="0.35"/>
<line x1="240" y1="522" x2="1000" y2="522" marker-start="url(#arb)" marker-end="url(#ar)"/>
<line x1="206" y1="150" x2="228" y2="150" opacity="0.35"/>
<line x1="206" y1="475" x2="228" y2="475" opacity="0.35"/>
<line x1="212" y1="150" x2="212" y2="475" marker-start="url(#arb)" marker-end="url(#ar)"/>
</g>

<g id="profile-strip">
<rect x="1052" y="150" width="40" height="325" opacity="0.9"/>
<rect x="1056" y="154" width="32" height="317" fill="url(#zig)" stroke="none"/>
<line x1="1052" y1="486" x2="1052" y2="514" opacity="0.35"/>
<line x1="1092" y1="486" x2="1092" y2="514" opacity="0.35"/>
<line x1="1052" y1="508" x2="1092" y2="508" marker-start="url(#arb)" marker-end="url(#ar)"/>
</g>

<g id="door-end">
<rect x="1180" y="150" width="306" height="325" opacity="0.9"/>
<rect x="1180" y="150" width="26" height="20" opacity="0.9"/><ellipse cx="1193" cy="160" rx="6.5" ry="4" opacity="0.9"/>
<rect x="1460" y="150" width="26" height="20" opacity="0.9"/><ellipse cx="1473" cy="160" rx="6.5" ry="4" opacity="0.9"/>
<rect x="1180" y="455" width="26" height="20" opacity="0.9"/><ellipse cx="1193" cy="465" rx="6.5" ry="4" opacity="0.9"/>
<rect x="1460" y="455" width="26" height="20" opacity="0.9"/><ellipse cx="1473" cy="465" rx="6.5" ry="4" opacity="0.9"/>
<rect x="1192" y="176" width="134" height="286" opacity="0.6"/>
<rect x="1340" y="176" width="134" height="286" opacity="0.6"/>
<line x1="1333" y1="150" x2="1333" y2="475" opacity="0.5"/>
<g opacity="0.85">
<line x1="1224" y1="176" x2="1224" y2="462"/><circle cx="1224" cy="184" r="3.5"/><circle cx="1224" cy="454" r="3.5"/>
<line x1="1284" y1="176" x2="1284" y2="462"/><circle cx="1284" cy="184" r="3.5"/><circle cx="1284" cy="454" r="3.5"/>
<line x1="1382" y1="176" x2="1382" y2="462"/><circle cx="1382" cy="184" r="3.5"/><circle cx="1382" cy="454" r="3.5"/>
<line x1="1442" y1="176" x2="1442" y2="462"/><circle cx="1442" cy="184" r="3.5"/><circle cx="1442" cy="454" r="3.5"/>
</g>
<g opacity="0.85"><rect x="1216" y="318" width="16" height="30"/><rect x="1276" y="318" width="16" height="30"/><rect x="1374" y="318" width="16" height="30"/><rect x="1434" y="318" width="16" height="30"/></g>
<g opacity="0.8"><rect x="1174" y="196" width="6" height="16"/><rect x="1174" y="298" width="6" height="16"/><rect x="1174" y="400" width="6" height="16"/><rect x="1486" y="196" width="6" height="16"/><rect x="1486" y="298" width="6" height="16"/><rect x="1486" y="400" width="6" height="16"/></g>
<rect x="1198" y="424" width="46" height="26" opacity="0.7"/>
<line x1="1204" y1="433" x2="1238" y2="433" opacity="0.5"/><line x1="1204" y1="440" x2="1226" y2="440" opacity="0.5"/>
</g>

<g opacity="0.85">
<line x1="1180" y1="486" x2="1180" y2="528" opacity="0.35"/>
<line x1="1486" y1="486" x2="1486" y2="528" opacity="0.35"/>
<line x1="1180" y1="522" x2="1486" y2="522" marker-start="url(#arb)" marker-end="url(#ar)"/>
</g>
</g>

<g fill="#F4F5F7" font-size="12" letter-spacing="1">
<text x="596" y="514" text-anchor="middle" opacity="0.9">6058</text>
<text x="196" y="316" text-anchor="middle" opacity="0.9" transform="rotate(-90 196 316)">2591</text>
<text x="1072" y="500" text-anchor="middle" opacity="0.9">36</text>
<text x="1333" y="514" text-anchor="middle" opacity="0.9">2438</text>
<text x="772" y="508" text-anchor="middle" opacity="0.95">SCAN 70% · FACE 2/6</text>
<text x="620" y="548" text-anchor="middle" opacity="0.65">FACE 02 — SIDE ELEVATION</text>
<text x="1072" y="548" text-anchor="middle" opacity="0.65">PROFILE</text>
<text x="1333" y="548" text-anchor="middle" opacity="0.65">FACE 05 — DOOR END</text>
<text x="240" y="644" opacity="0.9">DIMENSIONS IN MM · ALL 6 FACES CAPTURED · mm² ANNOTATED</text>
</g>

<g fill="#ED510C" font-size="12" letter-spacing="1">
<text x="580" y="114">DENT · CONF 0.84 · 412 mm²</text>
<text x="976" y="114">CRACK · CONF 0.77 · 128 mm²</text>
<text x="622" y="584" text-anchor="end">RUST · CONF 0.91 · 96 mm²</text>
<text x="1398" y="584" text-anchor="end">SEAL — PRESENT · 0.97</text>
</g>
</svg>
