<svg viewBox="0 0 1000 750" xmlns="http://www.w3.org/2000/svg" font-family="'IBM Plex Mono',monospace">
<rect width="1000" height="750" fill="#101216"/>
<text x="36" y="50" fill="#F4F5F7" font-size="18" letter-spacing="2" opacity="0.92">DESTUFF — LIVE</text>
<text x="36" y="76" fill="#F4F5F7" font-size="18" letter-spacing="2" opacity="0.92">COUNT WITH VIDEO PROOF</text>
<g fill="#F4F5F7" font-size="11" letter-spacing="1" opacity="0.7" text-anchor="end">
<text x="964" y="44">EDGE COMPUTE — OFFLINE</text>
<text x="964" y="64">ALERTS — REAL TIME</text>
</g>
<g stroke="#F4F5F7" fill="none" stroke-width="1">
<rect x="700" y="96" width="264" height="86" opacity="0.5"/>
</g>
<text x="722" y="142" fill="#F4F5F7" font-size="30" letter-spacing="2">COUNT 27</text>
<text x="906" y="142" fill="#ED510C" font-size="26">▲</text>
<text x="722" y="168" fill="#F4F5F7" font-size="11" letter-spacing="1" opacity="0.55">IN PROGRESS — NO TOTAL YET</text>
<g stroke="#F4F5F7" fill="none" stroke-width="1">
<g id="container-cutaway">
<rect x="70" y="190" width="410" height="370" opacity="0.9"/>
<line x1="70" y1="206" x2="480" y2="206" opacity="0.45"/>
<line x1="70" y1="544" x2="480" y2="544" opacity="0.45"/>
<line x1="480" y1="190" x2="560" y2="140" opacity="0.75"/>
<rect x="70" y="190" width="18" height="14" opacity="0.9"/><rect x="70" y="546" width="18" height="14" opacity="0.9"/>
<g id="stack" opacity="0.8">
<rect x="96" y="470" width="64" height="70"/><rect x="164" y="470" width="64" height="70"/><rect x="232" y="470" width="64" height="70"/>
<rect x="96" y="396" width="64" height="70"/><rect x="164" y="396" width="64" height="70"/><rect x="232" y="396" width="64" height="70"/>
<rect x="96" y="322" width="64" height="70"/><rect x="164" y="322" width="64" height="70"/>
<rect x="96" y="248" width="64" height="70"/>
</g>
<line x1="330" y1="540" x2="470" y2="540" stroke-dasharray="4 5" opacity="0.35"/>
</g>
<g id="belt">
<line x1="480" y1="560" x2="950" y2="560" opacity="0.85"/>
<circle cx="500" cy="574" r="7" opacity="0.6"/><circle cx="544" cy="574" r="7" opacity="0.6"/><circle cx="588" cy="574" r="7" opacity="0.6"/><circle cx="632" cy="574" r="7" opacity="0.6"/><circle cx="676" cy="574" r="7" opacity="0.6"/><circle cx="720" cy="574" r="7" opacity="0.6"/><circle cx="764" cy="574" r="7" opacity="0.6"/><circle cx="808" cy="574" r="7" opacity="0.6"/><circle cx="852" cy="574" r="7" opacity="0.6"/><circle cx="896" cy="574" r="7" opacity="0.6"/>
</g>
<g id="cam" opacity="0.9">
<rect x="586" y="230" width="30" height="20"/><circle cx="601" cy="240" r="5"/>
<line x1="601" y1="250" x2="640" y2="510" stroke-dasharray="4 5" opacity="0.4"/>
<line x1="601" y1="250" x2="800" y2="500" stroke-dasharray="4 5" opacity="0.4"/>
</g>
<g id="carton">
<rect x="510" y="512" width="52" height="46" opacity="0.85"/>
<line x1="510" y1="528" x2="562" y2="528" opacity="0.45"/>
</g>
<g id="gunny">
<path d="M628,558 Q620,528 636,516 Q648,506 664,514 Q680,520 676,540 Q674,558 656,558 Z" opacity="0.85"/>
<line x1="636" y1="516" x2="642" y2="506" opacity="0.6"/><line x1="660" y1="512" x2="666" y2="503" opacity="0.6"/>
</g>
<g id="drum">
<rect x="742" y="506" width="48" height="52" opacity="0.85"/>
<ellipse cx="766" cy="506" rx="24" ry="7" opacity="0.85"/>
<ellipse cx="766" cy="558" rx="24" ry="7" opacity="0.5"/>
<line x1="742" y1="524" x2="790" y2="524" opacity="0.4"/>
</g>
<g id="pallet" opacity="0.8">
<rect x="856" y="544" width="76" height="8"/>
<rect x="860" y="552" width="12" height="8"/><rect x="888" y="552" width="12" height="8"/><rect x="916" y="552" width="12" height="8"/>
</g>
</g>
<g stroke="#ED510C" fill="none">
<rect x="504" y="506" width="64" height="58" stroke-width="1.5" fill="#ED510C" fill-opacity="0.14"/>
<rect x="620" y="500" width="66" height="64" stroke-width="1.5" fill="#ED510C" fill-opacity="0.14"/>
<rect x="734" y="494" width="64" height="72" stroke-width="1.5" fill="#ED510C" fill-opacity="0.14"/>
<polyline points="766,566 766,636 782,636" stroke-width="1"/>
</g>
<g fill="#ED510C" font-size="12" letter-spacing="1" text-anchor="middle">
<text x="536" y="490">CARTON ✓</text>
<text x="653" y="484">GUNNY BAG ✓</text>
<text x="766" y="478">DRUM ✓</text>
</g>
<text x="788" y="640" fill="#ED510C" font-size="12" letter-spacing="1">DAMAGE · CONF 0.88 — SAME PASS</text>
<g fill="#F4F5F7" font-size="12" letter-spacing="1">
<text x="36" y="640" opacity="0.85">EVERY ITEM DETECTED ON VIDEO — PROOF ATTACHED PER SESSION</text>
<text x="36" y="668" opacity="0.55">CARTONS · GUNNY BAGS · JUMBO BAGS · PALLETS · DRUMS · BARRELS</text>
<text x="36" y="712" opacity="0.7">FULL DETECTION AND ALERTING ON BOARD — ZERO-INTERNET OPERATION</text>
</g>
</svg>
