<svg viewBox="0 0 900 440" xmlns="http://www.w3.org/2000/svg" font-family="'IBM Plex Mono',monospace">
<defs>
<marker id="tar" markerWidth="8" markerHeight="8" refX="7" refY="4" orient="auto"><path d="M0,1 L7,4 L0,7" fill="none" stroke="#13151A" stroke-width="1"/></marker>
<marker id="tarb" markerWidth="8" markerHeight="8" refX="1" refY="4" orient="auto"><path d="M8,1 L1,4 L8,7" fill="none" stroke="#13151A" stroke-width="1"/></marker>
</defs>
<text x="60" y="26" fill="#13151A" font-size="15" letter-spacing="2" opacity="0.9">SPECIMEN T11</text>
<g stroke="#13151A" fill="none" stroke-width="1">
<g id="frame">
<line x1="60" y1="52" x2="840" y2="52" opacity="0.85"/>
<line x1="60" y1="60" x2="840" y2="60" opacity="0.4"/>
<line x1="60" y1="366" x2="840" y2="366" opacity="0.85"/>
<line x1="60" y1="358" x2="840" y2="358" opacity="0.4"/>
<line x1="66" y1="52" x2="66" y2="366" opacity="0.85"/>
<line x1="116" y1="52" x2="116" y2="366" opacity="0.7"/>
<line x1="66" y1="52" x2="116" y2="366" opacity="0.45"/>
<line x1="116" y1="52" x2="66" y2="366" opacity="0.45"/>
<line x1="834" y1="52" x2="834" y2="366" opacity="0.85"/>
<line x1="784" y1="52" x2="784" y2="366" opacity="0.7"/>
<line x1="784" y1="52" x2="834" y2="366" opacity="0.45"/>
<line x1="834" y1="52" x2="784" y2="366" opacity="0.45"/>
<rect x="58" y="46" width="22" height="16" opacity="0.9"/><ellipse cx="69" cy="54" rx="5.5" ry="3.5" opacity="0.9"/>
<rect x="820" y="46" width="22" height="16" opacity="0.9"/><ellipse cx="831" cy="54" rx="5.5" ry="3.5" opacity="0.9"/>
<rect x="58" y="356" width="22" height="16" opacity="0.9"/><ellipse cx="69" cy="364" rx="5.5" ry="3.5" opacity="0.9"/>
<rect x="820" y="356" width="22" height="16" opacity="0.9"/><ellipse cx="831" cy="364" rx="5.5" ry="3.5" opacity="0.9"/>
</g>
<g id="tank">
<line x1="150" y1="76" x2="750" y2="76" opacity="0.9"/>
<line x1="150" y1="342" x2="750" y2="342" opacity="0.9"/>
<ellipse cx="150" cy="209" rx="30" ry="133" opacity="0.9"/>
<ellipse cx="750" cy="209" rx="30" ry="133" opacity="0.9"/>
<ellipse cx="310" cy="209" rx="9" ry="133" opacity="0.3"/>
<ellipse cx="450" cy="209" rx="9" ry="133" opacity="0.3"/>
<ellipse cx="590" cy="209" rx="9" ry="133" opacity="0.3"/>
</g>
<g id="manlid">
<rect x="408" y="46" width="84" height="30" opacity="0.75"/>
<circle cx="450" cy="76" r="24" opacity="0.85"/>
<circle cx="450" cy="76" r="14" opacity="0.55"/>
<line x1="426" y1="76" x2="474" y2="76" opacity="0.45"/>
</g>
<g id="walkway" opacity="0.6">
<line x1="380" y1="38" x2="700" y2="38"/>
<line x1="392" y1="38" x2="392" y2="46"/><line x1="440" y1="38" x2="440" y2="46"/><line x1="512" y1="38" x2="512" y2="46"/><line x1="560" y1="38" x2="560" y2="46"/><line x1="632" y1="38" x2="632" y2="46"/><line x1="688" y1="38" x2="688" y2="46"/>
</g>
<g id="valve" opacity="0.8">
<rect x="688" y="342" width="26" height="22"/>
<rect x="694" y="364" width="14" height="14"/>
<line x1="701" y1="378" x2="701" y2="388"/>
<circle cx="701" cy="352" r="6" opacity="0.6"/>
</g>
<g id="ladder" opacity="0.7">
<line x1="796" y1="64" x2="796" y2="356"/>
<line x1="814" y1="64" x2="814" y2="356"/>
<line x1="796" y1="88" x2="814" y2="88"/><line x1="796" y1="120" x2="814" y2="120"/><line x1="796" y1="152" x2="814" y2="152"/><line x1="796" y1="184" x2="814" y2="184"/><line x1="796" y1="216" x2="814" y2="216"/><line x1="796" y1="248" x2="814" y2="248"/><line x1="796" y1="280" x2="814" y2="280"/><line x1="796" y1="312" x2="814" y2="312"/><line x1="796" y1="344" x2="814" y2="344"/>
</g>
<g id="dims" opacity="0.85">
<line x1="60" y1="382" x2="60" y2="416" opacity="0.35"/>
<line x1="840" y1="382" x2="840" y2="416" opacity="0.35"/>
<line x1="60" y1="410" x2="840" y2="410" marker-start="url(#tarb)" marker-end="url(#tar)"/>
<line x1="28" y1="52" x2="52" y2="52" opacity="0.35"/>
<line x1="28" y1="366" x2="52" y2="366" opacity="0.35"/>
<line x1="34" y1="52" x2="34" y2="366" marker-start="url(#tarb)" marker-end="url(#tar)"/>
</g>
</g>
<g fill="#13151A" font-size="12" letter-spacing="1">
<text x="450" y="402" text-anchor="middle" opacity="0.9">6058</text>
<text x="20" y="209" text-anchor="middle" opacity="0.9" transform="rotate(-90 20 209)">2591</text>
<text x="60" y="434" opacity="0.65">DIMENSIONS IN MM · ISO TANK — FRAME TYPE T11</text>
</g>
</svg>
