<svg viewBox="0 0 500 1100" xmlns="http://www.w3.org/2000/svg" font-family="'IBM Plex Mono',monospace">
<defs>
<pattern id="ccorr" width="12" height="10" patternUnits="userSpaceOnUse">
<line x1="3" y1="0" x2="3" y2="10" stroke="#F4F5F7" stroke-width="1" opacity="0.6"/>
<line x1="8" y1="0" x2="8" y2="10" stroke="#F4F5F7" stroke-width="1" opacity="0.22"/>
</pattern>
</defs>
<rect width="500" height="1100" fill="#101216"/>
<text x="32" y="46" fill="#F4F5F7" font-size="17" letter-spacing="2" opacity="0.92">LIFT 0142</text>
<text x="32" y="70" fill="#F4F5F7" font-size="17" letter-spacing="2" opacity="0.92">ALL FACES — SIMULTANEOUS</text>
<text x="468" y="98" text-anchor="end" fill="#F4F5F7" font-size="11" letter-spacing="1" opacity="0.7">T — 14:02:11</text>
<g stroke="#F4F5F7" fill="none" stroke-width="1">
<line x1="215" y1="98" x2="250" y2="146" opacity="0.8"/>
<line x1="285" y1="98" x2="250" y2="146" opacity="0.8"/>
<rect x="120" y="146" width="260" height="26" opacity="0.9"/>
<line x1="140" y1="172" x2="140" y2="200" opacity="0.8"/>
<line x1="360" y1="172" x2="360" y2="200" opacity="0.8"/>
<g id="container">
<rect x="130" y="200" width="240" height="360" opacity="0.9"/>
<rect x="142" y="212" width="216" height="336" fill="url(#ccorr)" stroke="none"/>
<rect x="142" y="212" width="216" height="336" opacity="0.3"/>
<line x1="250" y1="200" x2="250" y2="560" opacity="0.55"/>
<line x1="182" y1="212" x2="182" y2="548" opacity="0.8"/><circle cx="182" cy="222" r="3" opacity="0.8"/><circle cx="182" cy="538" r="3" opacity="0.8"/>
<line x1="218" y1="212" x2="218" y2="548" opacity="0.8"/><circle cx="218" cy="222" r="3" opacity="0.8"/><circle cx="218" cy="538" r="3" opacity="0.8"/>
<line x1="282" y1="212" x2="282" y2="548" opacity="0.8"/><circle cx="282" cy="222" r="3" opacity="0.8"/><circle cx="282" cy="538" r="3" opacity="0.8"/>
<line x1="318" y1="212" x2="318" y2="548" opacity="0.8"/><circle cx="318" cy="222" r="3" opacity="0.8"/><circle cx="318" cy="538" r="3" opacity="0.8"/>
<rect x="130" y="200" width="18" height="14" opacity="0.9"/><rect x="352" y="200" width="18" height="14" opacity="0.9"/>
<rect x="130" y="546" width="18" height="14" opacity="0.9"/><rect x="352" y="546" width="18" height="14" opacity="0.9"/>
</g>
<g id="cams" opacity="0.9">
<rect x="46" y="270" width="28" height="18"/><circle cx="60" cy="279" r="5"/>
<line x1="74" y1="279" x2="130" y2="300" stroke-dasharray="4 5" opacity="0.45"/>
<rect x="426" y="270" width="28" height="18"/><circle cx="440" cy="279" r="5"/>
<line x1="426" y1="279" x2="370" y2="300" stroke-dasharray="4 5" opacity="0.45"/>
<rect x="46" y="470" width="28" height="18"/><circle cx="60" cy="479" r="5"/>
<line x1="74" y1="479" x2="130" y2="500" stroke-dasharray="4 5" opacity="0.45"/>
<rect x="426" y="470" width="28" height="18"/><circle cx="440" cy="479" r="5"/>
<line x1="426" y1="479" x2="370" y2="500" stroke-dasharray="4 5" opacity="0.45"/>
</g>
</g>
<text x="250" y="130" text-anchor="middle" fill="#F4F5F7" font-size="11" letter-spacing="1" opacity="0.6">MULTI-CAMERA — EVERY FACE, EVERY LIFT</text>
<g stroke="#ED510C" fill="none">
<rect x="196" y="380" width="110" height="96" stroke-width="1.5" fill="#ED510C" fill-opacity="0.14"/>
<line x1="251" y1="476" x2="251" y2="620" stroke-width="1"/>
</g>
<path d="M226,412 Q240,398 258,406 Q276,400 282,418 Q290,432 276,442 Q268,456 250,450 Q234,454 226,440 Q218,426 226,412 Z" stroke="#F4F5F7" fill="none" opacity="0.6"/>
<path d="M240,420 Q250,414 260,422 Q266,430 256,436 Q246,440 240,432 Q236,426 240,420 Z" stroke="#F4F5F7" fill="none" opacity="0.4"/>
<g fill="#ED510C" font-size="12" letter-spacing="1" text-anchor="middle">
<text x="251" y="642">SEVERITY — HIGH · CONF 0.87</text>
</g>
<text x="251" y="666" text-anchor="middle" fill="#F4F5F7" font-size="12" letter-spacing="1" opacity="0.85">SURVEYOR — ALERTED</text>
<g stroke="#F4F5F7" fill="none" stroke-width="1">
<rect x="66" y="710" width="82" height="62" opacity="0.7"/>
<path d="M76,730 q10,-8 20,0 t20,0 t20,0" opacity="0.45"/>
<path d="M76,748 q10,-8 20,0 t20,0 t20,0" opacity="0.45"/>
<rect x="162" y="710" width="82" height="62" opacity="0.7"/>
<path d="M172,726 q10,-10 20,0 t20,0 t20,0" opacity="0.45"/>
<path d="M172,750 q10,-10 20,0 t20,0 t20,0" opacity="0.45"/>
<g><rect x="258" y="710" width="82" height="62" stroke="#ED510C" stroke-width="1.5"/>
<line x1="272" y1="716" x2="272" y2="766" opacity="0.75"/><line x1="288" y1="716" x2="288" y2="766" opacity="0.4"/><line x1="304" y1="716" x2="304" y2="766" opacity="0.75"/><line x1="320" y1="716" x2="320" y2="766" opacity="0.4"/>
</g>
<rect x="354" y="710" width="82" height="62" opacity="0.7"/>
<path d="M364,734 q10,-9 20,0 t20,0 t20,0" opacity="0.45"/>
<path d="M364,754 q10,-9 20,0 t20,0 t20,0" opacity="0.45"/>
</g>
<text x="292" y="700" fill="#ED510C" font-size="11" letter-spacing="1" text-anchor="middle">✓</text>
<g fill="#F4F5F7" font-size="11" letter-spacing="1" text-anchor="middle">
<text x="250" y="800" opacity="0.85">SHARPEST FRAME — SELECTED</text>
<text x="250" y="822" opacity="0.55">VIBRATION — COMPENSATED · MOTION BLUR — CORRECTED</text>
</g>
<g stroke="#F4F5F7" opacity="0.7">
<line x1="66" y1="890" x2="436" y2="890"/>
<line x1="66" y1="882" x2="66" y2="898"/><line x1="140" y1="885" x2="140" y2="895"/><line x1="214" y1="885" x2="214" y2="895"/><line x1="288" y1="885" x2="288" y2="895"/><line x1="362" y1="885" x2="362" y2="895"/><line x1="436" y1="882" x2="436" y2="898"/>
</g>
<rect x="285" y="887" width="6" height="6" fill="#ED510C"/>
<text x="288" y="922" text-anchor="middle" fill="#F4F5F7" font-size="12" letter-spacing="1" opacity="0.9">14:02:11</text>
<text x="250" y="960" text-anchor="middle" fill="#F4F5F7" font-size="11" letter-spacing="1" opacity="0.85">TIME-STAMPED AT DISCHARGE / LOAD</text>
<text x="250" y="1010" text-anchor="middle" fill="#F4F5F7" font-size="12" letter-spacing="2" opacity="0.7">VESSEL → YARD → GATE</text>
<text x="250" y="1034" text-anchor="middle" fill="#F4F5F7" font-size="11" letter-spacing="1" opacity="0.5">CHAIN OF CUSTODY</text>
</svg>
