<svg viewBox="0 0 340 460" xmlns="http://www.w3.org/2000/svg" font-family="&#39;IBM Plex Mono&#39;, monospace">
  <text x="20" y="32" fill="#13151A" font-size="11" letter-spacing="1.4">DIMENSIONS OVERVIEW</text>
  <line x1="20" y1="44" x2="200" y2="44" stroke="#13151A" stroke-width="1" opacity="0.3"></line>
  <rect x="108" y="110" width="164" height="180" fill="none" stroke="#13151A" stroke-width="1"></rect>
  <line x1="108" y1="155.0" x2="272" y2="155.0" stroke="#13151A" stroke-width="1" opacity="0.55"></line>
  <line x1="108" y1="200.0" x2="272" y2="200.0" stroke="#13151A" stroke-width="1" opacity="0.55"></line>
  <line x1="108" y1="245.0" x2="272" y2="245.0" stroke="#13151A" stroke-width="1" opacity="0.55"></line>
  <line x1="162.66666666666666" y1="110.0" x2="162.66666666666666" y2="155.0" stroke="#13151A" stroke-width="1" opacity="0.4"></line>
  <line x1="217.33333333333331" y1="110.0" x2="217.33333333333331" y2="155.0" stroke="#13151A" stroke-width="1" opacity="0.4"></line>
  <line x1="135.33333333333334" y1="155.0" x2="135.33333333333334" y2="200.0" stroke="#13151A" stroke-width="1" opacity="0.4"></line>
  <line x1="190.0" y1="155.0" x2="190.0" y2="200.0" stroke="#13151A" stroke-width="1" opacity="0.4"></line>
  <line x1="244.66666666666666" y1="155.0" x2="244.66666666666666" y2="200.0" stroke="#13151A" stroke-width="1" opacity="0.4"></line>
  <line x1="162.66666666666666" y1="200.0" x2="162.66666666666666" y2="245.0" stroke="#13151A" stroke-width="1" opacity="0.4"></line>
  <line x1="217.33333333333331" y1="200.0" x2="217.33333333333331" y2="245.0" stroke="#13151A" stroke-width="1" opacity="0.4"></line>
  <line x1="135.33333333333334" y1="245.0" x2="135.33333333333334" y2="290.0" stroke="#13151A" stroke-width="1" opacity="0.4"></line>
  <line x1="190.0" y1="245.0" x2="190.0" y2="290.0" stroke="#13151A" stroke-width="1" opacity="0.4"></line>
  <line x1="244.66666666666666" y1="245.0" x2="244.66666666666666" y2="290.0" stroke="#13151A" stroke-width="1" opacity="0.4"></line>
  <rect x="100" y="296" width="180" height="20" fill="none" stroke="#13151A" stroke-width="1"></rect>
  <line x1="122" y1="296" x2="122" y2="316" stroke="#13151A" stroke-width="1" opacity="0.5"></line>
  <line x1="160" y1="296" x2="160" y2="316" stroke="#13151A" stroke-width="1" opacity="0.5"></line>
  <line x1="220" y1="296" x2="220" y2="316" stroke="#13151A" stroke-width="1" opacity="0.5"></line>
  <line x1="258" y1="296" x2="258" y2="316" stroke="#13151A" stroke-width="1" opacity="0.5"></line>
  <path d="M108,121 v-11 h11" fill="none" stroke="#13151A" stroke-width="1.5"></path>
  <path d="M272,121 v-11 h-11" fill="none" stroke="#13151A" stroke-width="1.5"></path>
  <path d="M108,279 v11 h11" fill="none" stroke="#13151A" stroke-width="1.5"></path>
  <path d="M272,279 v11 h-11" fill="none" stroke="#13151A" stroke-width="1.5"></path>
  <line x1="100" y1="80" x2="280" y2="80" stroke="#13151A" stroke-width="0.75"></line>
  <path d="M100,80 L106.0,77.7 M100,80 L106.0,82.3" stroke="#13151A" stroke-width="0.75" fill="none"></path>
  <path d="M280,80 L274.0,77.7 M280,80 L274.0,82.3" stroke="#13151A" stroke-width="0.75" fill="none"></path>
  <line x1="100" y1="86" x2="100" y2="104" stroke="#13151A" stroke-width="0.75" opacity="0.4"></line>
  <line x1="280" y1="86" x2="280" y2="104" stroke="#13151A" stroke-width="0.75" opacity="0.4"></line>
  <rect x="162.0" y="69" width="56" height="20" fill="#ECEDEF"></rect>
  <text x="190.0" y="84" fill="#13151A" font-size="12" letter-spacing="1.0" text-anchor="middle">L ——</text>
  <line x1="72" y1="110" x2="72" y2="316" stroke="#13151A" stroke-width="0.75"></line>
  <path d="M72,110 L74.3,116.0 M72,110 L69.7,116.0" stroke="#13151A" stroke-width="0.75" fill="none"></path>
  <path d="M72,316 L74.3,310.0 M72,316 L69.7,310.0" stroke="#13151A" stroke-width="0.75" fill="none"></path>
  <line x1="78" y1="110" x2="96" y2="110" stroke="#13151A" stroke-width="0.75" opacity="0.4"></line>
  <line x1="78" y1="316" x2="96" y2="316" stroke="#13151A" stroke-width="0.75" opacity="0.4"></line>
  <rect x="44" y="190.0" width="54" height="20" fill="#ECEDEF"></rect>
  <text x="71" y="204.0" fill="#13151A" font-size="12" letter-spacing="1.0" text-anchor="middle">H ——</text>
  <line x1="306" y1="110" x2="306" y2="316" stroke="#13151A" stroke-width="0.75"></line>
  <path d="M306,110 L308.3,116.0 M306,110 L303.7,116.0" stroke="#13151A" stroke-width="0.75" fill="none"></path>
  <path d="M306,316 L308.3,310.0 M306,316 L303.7,310.0" stroke="#13151A" stroke-width="0.75" fill="none"></path>
  <line x1="284" y1="110" x2="300" y2="110" stroke="#13151A" stroke-width="0.75" opacity="0.4"></line>
  <line x1="284" y1="316" x2="300" y2="316" stroke="#13151A" stroke-width="0.75" opacity="0.4"></line>
  <rect x="280" y="190.0" width="56" height="20" fill="#ECEDEF"></rect>
  <text x="307" y="204.0" fill="#13151A" font-size="12" letter-spacing="1.0" text-anchor="middle">W ——</text>
  <text x="108" y="340" fill="#13151A" font-size="9" letter-spacing="1.2" opacity="0.6">FRONT ELEVATION</text>
  <line x1="20" y1="404" x2="320" y2="404" stroke="#13151A" stroke-width="1" opacity="0.25"></line>
  <text x="20" y="426" fill="#13151A" font-size="9" letter-spacing="1.0" opacity="0.6">CAPTURED FROM CAMERA VIEW</text>
  <text x="20" y="444" fill="#13151A" font-size="9" letter-spacing="1.0" opacity="0.6">ANNOTATED IMAGE ATTACHED → WMS</text>
</svg>