<svg viewBox="0 0 390 560" xmlns="http://www.w3.org/2000/svg" font-family="&#39;IBM Plex Mono&#39;,monospace">
<rect width="390" height="560" fill="#101216"></rect>
<g stroke="#F4F5F7" fill="none" stroke-width="1">

<g opacity="0.8"><rect x="52" y="72" width="30" height="18"></rect><rect x="82" y="76" width="11" height="9"></rect><circle cx="87" cy="81" r="2.6"></circle></g>
<g opacity="0.8"><rect x="180" y="66" width="30" height="18"></rect><rect x="188" y="84" width="12" height="9"></rect><circle cx="194" cy="89" r="2.6"></circle></g>
<g opacity="0.8"><rect x="308" y="72" width="30" height="18"></rect><rect x="297" y="76" width="11" height="9"></rect><circle cx="302" cy="81" r="2.6"></circle></g>

<g opacity="0.2" stroke-dasharray="5 6">
<line x1="67" y1="90" x2="67" y2="152"></line>
<line x1="194" y1="93" x2="194" y2="152"></line>
<line x1="323" y1="90" x2="323" y2="152"></line>
</g>

<g opacity="0.9">
<circle cx="67" cy="196" r="16"></circle>
<line x1="67" y1="212" x2="67" y2="264"></line>
<line x1="67" y1="226" x2="45" y2="248"></line><line x1="67" y1="226" x2="89" y2="244"></line>
<line x1="67" y1="264" x2="50" y2="300"></line><line x1="67" y1="264" x2="86" y2="300"></line>
</g>
<rect x="33" y="164" width="68" height="68" opacity="0.5"></rect>

<g opacity="0.9">
<circle cx="194" cy="196" r="16"></circle>
<line x1="194" y1="212" x2="194" y2="264"></line>
<line x1="194" y1="226" x2="170" y2="242"></line><line x1="194" y1="226" x2="220" y2="238"></line>
<line x1="194" y1="264" x2="180" y2="300"></line><line x1="194" y1="264" x2="210" y2="298"></line>
<g opacity="0.4"><line x1="186" y1="193" x2="191" y2="193"></line><line x1="198" y1="193" x2="203" y2="193"></line></g>
</g>
<rect x="160" y="164" width="68" height="68" opacity="0.5"></rect>

<g opacity="0.9">
<circle cx="323" cy="196" r="16"></circle>
<line x1="323" y1="212" x2="323" y2="264"></line>
<line x1="323" y1="226" x2="349" y2="246"></line><line x1="323" y1="226" x2="299" y2="240"></line>
<line x1="323" y1="264" x2="306" y2="298"></line><line x1="323" y1="264" x2="342" y2="302"></line>
</g>
<rect x="289" y="164" width="68" height="68" opacity="0.5"></rect>

<g opacity="0.35">
<line x1="67" y1="232" x2="67" y2="352"></line>
<line x1="194" y1="232" x2="194" y2="352"></line>
<line x1="323" y1="232" x2="323" y2="352"></line>
<line x1="67" y1="352" x2="323" y2="352"></line>
<line x1="195" y1="352" x2="195" y2="378"></line>
<path d="M190,374 L195,384 L200,374"></path>
</g>

<rect x="48" y="392" width="294" height="46" opacity="0.75"></rect>
</g>

<g fill="#F4F5F7" letter-spacing="1.2">
<text x="24" y="34" font-size="12" opacity="0.9">MULTI-ANGLE — SAME FLOOR</text>
<text x="366" y="34" font-size="10" text-anchor="end" opacity="0.6">NO CHECKPOINT</text>
<text x="67" y="154" font-size="9" text-anchor="middle" opacity="0.6">SIDE</text>
<text x="194" y="154" font-size="9" text-anchor="middle" opacity="0.6">AWAY</text>
<text x="323" y="154" font-size="9" text-anchor="middle" opacity="0.6">3/4</text>
<text x="67" y="338" font-size="9" text-anchor="middle" opacity="0.5">ID ————</text>
<text x="194" y="338" font-size="9" text-anchor="middle" opacity="0.5">ID ————</text>
<text x="323" y="338" font-size="9" text-anchor="middle" opacity="0.5">ID ————</text>
<text x="195" y="420" font-size="12" text-anchor="middle" opacity="0.95" letter-spacing="1.6">EVERYONE ACCOUNTED FOR</text>
<text x="24" y="480" font-size="10" opacity="0.45">NOBODY STOPS. NOBODY SIGNS IN.</text>
<text x="24" y="500" font-size="10" opacity="0.45">THE REGISTER WRITES ITSELF.</text>
</g>
</svg>