<svg viewBox="0 0 1232 800" xmlns="http://www.w3.org/2000/svg" font-family="'IBM Plex Mono',monospace">
<rect width="1232" height="800" fill="#101216"></rect>

<g stroke="#F4F5F7" fill="none" stroke-width="1">

<g id="camera" opacity="0.9" stroke-width="1.5">
<rect x="1064" y="64" width="60" height="34"></rect>
<rect x="1040" y="72" width="24" height="18"></rect>
<circle cx="1052" cy="81" r="6"></circle>
<line x1="1094" y1="98" x2="1094" y2="118"></line>
<rect x="1074" y="118" width="40" height="10"></rect>
</g>

<g opacity="0.22" stroke-dasharray="6 7" stroke-width="1.5">
<line x1="1046" y1="92" x2="88" y2="452"></line>
<line x1="1062" y1="104" x2="1120" y2="452"></line>
</g>

<line x1="72" y1="452" x2="1160" y2="452" opacity="0.6" stroke-width="1.5"></line>

<g id="a" opacity="0.9" stroke-width="2">
<path d="M196,226 Q240,180 284,226" stroke-width="2.5"></path>
<line x1="190" y1="228" x2="290" y2="228" stroke-width="2.5"></line>
<circle cx="240" cy="250" r="26"></circle>
<line x1="240" y1="276" x2="240" y2="364"></line>
<line x1="240" y1="298" x2="200" y2="340"></line>
<line x1="240" y1="298" x2="280" y2="340"></line>
<line x1="240" y1="364" x2="214" y2="450"></line>
<line x1="240" y1="364" x2="266" y2="450"></line>
</g>

<g id="b" opacity="0.9" stroke-width="2">
<circle cx="616" cy="242" r="26"></circle>
<path d="M616,234 Q642,240 638,258 Q627,268 616,263" opacity="0.55" stroke-width="1.5"></path>
<circle cx="628" cy="236" r="3" opacity="0.55"></circle>
<line x1="616" y1="268" x2="616" y2="364"></line>
<line x1="616" y1="292" x2="578" y2="336"></line>
<line x1="616" y1="292" x2="656" y2="326"></line>
<line x1="616" y1="364" x2="590" y2="450"></line>
<line x1="616" y1="364" x2="648" y2="448"></line>
</g>

<g id="c" opacity="0.9" stroke-width="2">
<circle cx="992" cy="242" r="26"></circle>
<g opacity="0.4" stroke-dasharray="4 5" stroke-width="1.5">
<line x1="968" y1="224" x2="1016" y2="224"></line>
<line x1="968" y1="242" x2="1016" y2="242"></line>
<line x1="968" y1="260" x2="1016" y2="260"></line>
</g>
<line x1="992" y1="268" x2="992" y2="364"></line>
<line x1="992" y1="292" x2="1032" y2="330"></line>
<line x1="992" y1="292" x2="954" y2="324"></line>
<line x1="992" y1="364" x2="966" y2="450"></line>
<line x1="992" y1="364" x2="1020" y2="448"></line>
</g>

<g opacity="0.35" stroke-width="1.5">
<line x1="240" y1="536" x2="240" y2="580"></line>
<line x1="616" y1="536" x2="616" y2="580"></line>
<line x1="992" y1="536" x2="992" y2="580"></line>
<line x1="240" y1="580" x2="992" y2="580"></line>
<line x1="616" y1="580" x2="616" y2="614"></line>
<path d="M608,606 L616,622 L624,606" stroke-width="2"></path>
</g>
</g>

<g stroke="#ED510C" fill="none" stroke-width="2">
<rect x="176" y="176" width="128" height="292" fill="#ED510C" fill-opacity="0.14"></rect>
<rect x="556" y="200" width="120" height="268" fill="#ED510C" fill-opacity="0.14"></rect>
<rect x="932" y="200" width="120" height="268" fill="#ED510C" fill-opacity="0.14"></rect>
<rect x="72" y="640" width="1088" height="80"></rect>
</g>

<g fill="#F4F5F7" font-size="20" letter-spacing="1.6" text-anchor="middle" opacity="0.95">
<text x="240" y="148">BACK-FACING</text>
<text x="616" y="148">SIDE · MASKED</text>
<text x="992" y="148">OCCLUDED</text>
</g>

<g fill="#F4F5F7" font-size="20" letter-spacing="1.6" text-anchor="middle" opacity="0.9">
<text x="240" y="516">WORKER 042</text>
<text x="616" y="516">WORKER 109</text>
<text x="992" y="516">WORKER 217</text>
</g>

<text x="96" y="624" fill="#ED510C" font-size="18" letter-spacing="2">PRESENCE — VERIFIED</text>

<g fill="#F4F5F7" font-size="22" letter-spacing="1.6" opacity="0.95">
<text x="112" y="692">WORKER 042</text>
<text x="380" y="692" opacity="0.45">▸</text>
<text x="432" y="692">ZONE 04 · LOADING</text>
<text x="812" y="692" opacity="0.45">▸</text>
<text x="864" y="692">18:26:55 – 18:42:10</text>
</g>

<g fill="#F4F5F7" font-size="14" letter-spacing="1.2" opacity="0.55">
<text x="112" y="752">BUILD · GAIT · POSTURE</text>
<text x="112" y="774" opacity="0.75">FACE NOT REQUIRED</text>
<text x="432" y="752">MAPPED CAMERA COVERAGE</text>
<text x="864" y="752">ENTRY AND EXIT, TO THE SECOND</text>
</g>

<g fill="#F4F5F7" font-size="16" letter-spacing="1.4" opacity="0.75">
<text x="72" y="46">EXISTING CCTV — NO NEW HARDWARE</text>
<text x="1160" y="46" text-anchor="end">NO CHECKPOINT · NO SCANNER</text>
</g>
</svg>
